<?xml version="1.0" standalone="no"?>
<!DOCTYPE svg PUBLIC "-//W3C//DTD SVG 20010904//EN"
 "http://www.w3.org/TR/2001/REC-SVG-20010904/DTD/svg10.dtd">
<svg version="1.0" xmlns="http://www.w3.org/2000/svg"
 width="403.000000pt" height="403.000000pt" viewBox="0 0 403.000000 403.000000"
 preserveAspectRatio="xMidYMid meet">
<metadata>
Created by potrace 1.14, written by Peter Selinger 2001-2017
</metadata>
<g transform="translate(0.000000,403.000000) scale(0.100000,-0.100000)"
fill="#000000" stroke="none">
<path d="M1765 4014 c-284 -38 -511 -116 -782 -268 -239 -135 -518 -409 -676
-663 -118 -192 -214 -421 -253 -604 -44 -212 -52 -292 -49 -494 4 -221 16
-306 71 -515 76 -281 239 -578 439 -798 125 -137 240 -236 392 -338 90 -60
269 -156 338 -182 17 -6 55 -20 85 -32 60 -23 255 -76 310 -84 19 -3 45 -8 57
-10 100 -21 423 -28 548 -13 130 16 265 45 393 86 70 23 241 90 257 101 6 4
42 24 80 45 362 193 666 511 850 890 76 154 155 388 169 500 7 49 18 122 23
145 9 46 11 374 2 445 -32 259 -88 454 -194 670 -251 517 -707 900 -1260 1058
-49 14 -102 28 -118 31 -200 37 -204 37 -402 40 -111 2 -219 -2 -280 -10z"/>
</g>
</svg>
